 <svg version="1.0" xmlns="http://www.w3.org/2000/svg"  width="284.000000pt" height="272.000000pt" viewBox="0 0 284.000000 272.000000"  preserveAspectRatio="xMidYMid meet">  <g transform="translate(0.000000,272.000000) scale(0.100000,-0.100000)" fill="#d0cfce" stroke="none"> <path d="M626 2355 c-50 -17 -103 -61 -141 -114 l-30 -43 -3 -861 -2 -861 25 -52 c31 -62 98 -121 162 -140 71 -21 1647 -21 1719 1 66 19 127 73 160 142 l28 56 0 836 1 836 -23 50 c-31 68 -66 102 -137 136 l-60 29 -830 0 c-680 -1 -837 -3 -869 -15z m1721 -145 c66 -40 63 5 63 -893 l0 -814 -23 -34 c-48 -73 0 -69 -890 -69 -783 0 -799 0 -838 20 -22 12 -49 35 -59 53 -19 31 -20 56 -20 845 0 897 -3 852 63 892 31 19 56 20 852 20 796 0 821 -1 852 -20z"/> <path d="M1177 1856 c-74 -27 -100 -65 -132 -201 l-22 -90 -61 -3 c-66 -3 -84 -16 -84 -59 0 -36 35 -63 83 -63 21 0 39 -2 39 -3 0 -4 -21 -105 -80 -392 -12 -55 -23 -107 -26 -116 -6 -20 -46 -39 -84 -39 -48 0 -72 -78 -31 -100 36 -19 111 -12 157 15 63 37 79 81 137 375 l52 260 50 0 c66 0 99 18 103 54 5 44 -22 66 -81 66 -36 0 -48 3 -44 13 2 7 10 39 17 72 19 94 29 105 101 105 50 0 64 4 84 25 14 13 25 29 25 35 0 6 -11 22 -25 35 -20 21 -34 25 -82 25 -32 -1 -75 -7 -96 -14z"/> <path d="M1500 1653 c-104 -118 -146 -348 -100 -541 32 -132 97 -242 145 -242 36 0 36 21 -1 96 -99 203 -96 481 8 647 25 39 28 50 18 62 -19 23 -35 18 -70 -22z"/> <path d="M1981 1676 c-9 -11 -4 -28 23 -77 48 -87 66 -171 66 -307 0 -141 -21 -248 -65 -329 -37 -67 -37 -93 0 -93 30 0 69 46 105 126 79 176 79 392 0 563 -55 116 -98 155 -129 117z"/> <path d="M1626 1433 c15 -26 45 -76 66 -111 l38 -62 -55 -94 c-78 -134 -78 -128 -14 -124 l54 3 30 57 c17 32 33 58 36 58 3 0 21 -27 38 -60 l32 -60 50 0 c33 0 49 4 49 13 0 7 -25 54 -55 105 -30 51 -55 98 -55 105 0 7 25 55 55 107 30 52 55 98 55 103 0 4 -22 7 -50 7 l-50 0 -30 -60 c-17 -33 -34 -60 -38 -60 -4 0 -21 26 -38 58 l-31 57 -57 3 -57 3 27 -48z"/> </g> </svg> 